<mxfile host="app.diagrams.net" modified="2022-03-29T08:20:09.308Z" agent="5.0 (Macintosh)" etag="KmuKYQAF4L3GgL5yOBV2" version="15.2.7" type="github">
  <diagram name="Page-1" id="edf60f1a-56cd-e834-aa8a-f176f3a09ee4">
    <mxGraphModel dx="2210" dy="940" grid="1" gridSize="12" guides="1" tooltips="1" connect="1" arrows="1" fold="1" page="1" pageScale="1" pageWidth="1100" pageHeight="850" background="none" math="0" shadow="0">
      <root>
        <mxCell id="0" />
        <mxCell id="1" parent="0" />
        <mxCell id="r9l6ygumFsfBTqQ8MOW--1" value="&lt;div&gt;&lt;font style=&quot;font-size: 17px&quot;&gt;Genome Assembly of Pacbio Reads&lt;/font&gt;&lt;/div&gt;&lt;div&gt;&lt;font style=&quot;font-size: 17px&quot;&gt;Input: &lt;br&gt;&lt;/font&gt;&lt;/div&gt;&lt;div&gt;&lt;font style=&quot;font-size: 17px&quot;&gt;Output&lt;br&gt;&lt;/font&gt;&lt;/div&gt;" style="rounded=0;whiteSpace=wrap;html=1;" vertex="1" parent="1">
          <mxGeometry x="136" y="240" width="212" height="96" as="geometry" />
        </mxCell>
        <mxCell id="r9l6ygumFsfBTqQ8MOW--2" value="Canu" style="rounded=0;whiteSpace=wrap;html=1;fillColor=#dae8fc;strokeColor=#6c8ebf;" vertex="1" parent="1">
          <mxGeometry x="182" y="336" width="120" height="60" as="geometry" />
        </mxCell>
        <mxCell id="r9l6ygumFsfBTqQ8MOW--3" value="11.5 Hours" style="rounded=0;whiteSpace=wrap;html=1;fillColor=#ffe6cc;strokeColor=#d79b00;" vertex="1" parent="1">
          <mxGeometry x="182" y="396" width="120" height="60" as="geometry" />
        </mxCell>
        <mxCell id="r9l6ygumFsfBTqQ8MOW--4" value="&lt;div&gt;RNA: Reads Pre-Processing&lt;/div&gt;&lt;div&gt;Input:&lt;/div&gt;&lt;div&gt;Output:&lt;br&gt;&lt;/div&gt;" style="rounded=0;whiteSpace=wrap;html=1;" vertex="1" parent="1">
          <mxGeometry x="750" y="228" width="180" height="108" as="geometry" />
        </mxCell>
        <mxCell id="r9l6ygumFsfBTqQ8MOW--5" value="Trimmometric" style="rounded=0;whiteSpace=wrap;html=1;fillColor=#dae8fc;strokeColor=#6c8ebf;" vertex="1" parent="1">
          <mxGeometry x="780" y="336" width="120" height="60" as="geometry" />
        </mxCell>
        <mxCell id="r9l6ygumFsfBTqQ8MOW--6" value="15 min per file (2 cores)" style="rounded=0;whiteSpace=wrap;html=1;fillColor=#ffe6cc;strokeColor=#d79b00;" vertex="1" parent="1">
          <mxGeometry x="780" y="395" width="120" height="60" as="geometry" />
        </mxCell>
        <mxCell id="r9l6ygumFsfBTqQ8MOW--11" value="" style="endArrow=classic;html=1;exitX=0.5;exitY=1;exitDx=0;exitDy=0;" edge="1" parent="1" source="r9l6ygumFsfBTqQ8MOW--3">
          <mxGeometry width="50" height="50" relative="1" as="geometry">
            <mxPoint x="240" y="480" as="sourcePoint" />
            <mxPoint x="240" y="528" as="targetPoint" />
            <Array as="points">
              <mxPoint x="240" y="456" />
            </Array>
          </mxGeometry>
        </mxCell>
        <mxCell id="r9l6ygumFsfBTqQ8MOW--13" value="" style="endArrow=classic;html=1;exitX=0.5;exitY=1;exitDx=0;exitDy=0;" edge="1" parent="1" source="r9l6ygumFsfBTqQ8MOW--6">
          <mxGeometry width="50" height="50" relative="1" as="geometry">
            <mxPoint x="768" y="554" as="sourcePoint" />
            <mxPoint x="840" y="528" as="targetPoint" />
          </mxGeometry>
        </mxCell>
        <mxCell id="r9l6ygumFsfBTqQ8MOW--17" style="edgeStyle=orthogonalEdgeStyle;rounded=0;orthogonalLoop=1;jettySize=auto;html=1;exitX=1;exitY=0.5;exitDx=0;exitDy=0;entryX=1;entryY=0.5;entryDx=0;entryDy=0;" edge="1" parent="1" source="r9l6ygumFsfBTqQ8MOW--14" target="r9l6ygumFsfBTqQ8MOW--1">
          <mxGeometry relative="1" as="geometry" />
        </mxCell>
        <mxCell id="r9l6ygumFsfBTqQ8MOW--23" style="edgeStyle=orthogonalEdgeStyle;rounded=0;orthogonalLoop=1;jettySize=auto;html=1;exitX=0;exitY=0.5;exitDx=0;exitDy=0;" edge="1" parent="1" source="r9l6ygumFsfBTqQ8MOW--14">
          <mxGeometry relative="1" as="geometry">
            <mxPoint x="24" y="570" as="targetPoint" />
          </mxGeometry>
        </mxCell>
        <mxCell id="r9l6ygumFsfBTqQ8MOW--14" value="&lt;div&gt;Assembly Quality Assessment&lt;div&gt;&lt;font style=&quot;font-size: 17px&quot;&gt;Input: &lt;br&gt;&lt;/font&gt;&lt;/div&gt;&lt;font style=&quot;font-size: 17px&quot;&gt;Output&lt;/font&gt;&lt;/div&gt;" style="rounded=0;whiteSpace=wrap;html=1;" vertex="1" parent="1">
          <mxGeometry x="144" y="528" width="192" height="84" as="geometry" />
        </mxCell>
        <mxCell id="r9l6ygumFsfBTqQ8MOW--15" value="QUAST/ MUMmerplot" style="rounded=0;whiteSpace=wrap;html=1;fillColor=#dae8fc;strokeColor=#6c8ebf;" vertex="1" parent="1">
          <mxGeometry x="182" y="612" width="120" height="60" as="geometry" />
        </mxCell>
        <mxCell id="r9l6ygumFsfBTqQ8MOW--18" style="edgeStyle=orthogonalEdgeStyle;rounded=0;orthogonalLoop=1;jettySize=auto;html=1;exitX=0.5;exitY=1;exitDx=0;exitDy=0;" edge="1" parent="1" source="r9l6ygumFsfBTqQ8MOW--16">
          <mxGeometry relative="1" as="geometry">
            <mxPoint x="242" y="816" as="targetPoint" />
          </mxGeometry>
        </mxCell>
        <mxCell id="r9l6ygumFsfBTqQ8MOW--16" value="&amp;lt; 15 min " style="rounded=0;whiteSpace=wrap;html=1;fillColor=#ffe6cc;strokeColor=#d79b00;" vertex="1" parent="1">
          <mxGeometry x="182" y="672" width="120" height="60" as="geometry" />
        </mxCell>
        <mxCell id="r9l6ygumFsfBTqQ8MOW--20" value="&lt;div&gt;&lt;br/&gt;&lt;br/&gt;&lt;br/&gt;&lt;br/&gt;&lt;br/&gt;&lt;br/&gt;&lt;br/&gt;&lt;br/&gt;&lt;br/&gt;&lt;br/&gt;&lt;br/&gt;&lt;br/&gt;&lt;br/&gt;&lt;br/&gt;&lt;br/&gt;&lt;br/&gt;&lt;br/&gt;&lt;span style=&quot;font-size: 11.0pt ; font-family: &amp;#34;arialmt&amp;#34; , serif&quot;&gt;Structural and&lt;br/&gt;functional annotation&lt;/span&gt;&lt;/div&gt;&lt;div&gt;&lt;br/&gt;&lt;br/&gt;&lt;br/&gt;&lt;br/&gt;&lt;br/&gt;&lt;br/&gt;&lt;br/&gt;&lt;br/&gt;&lt;br/&gt;&lt;br/&gt;&lt;br/&gt;&lt;br/&gt;&lt;br/&gt;&lt;br/&gt;&lt;br/&gt;&lt;br/&gt;&lt;div&gt;&lt;font style=&quot;font-size: 17px&quot;&gt;Input: &lt;br&gt;&lt;/font&gt;&lt;/div&gt;&lt;font style=&quot;font-size: 17px&quot;&gt;Output&lt;/font&gt;&lt;/div&gt;" style="rounded=0;whiteSpace=wrap;html=1;" vertex="1" parent="1">
          <mxGeometry x="156" y="816" width="192" height="72" as="geometry" />
        </mxCell>
        <mxCell id="r9l6ygumFsfBTqQ8MOW--21" value="Prokka/Eggnogmaker" style="rounded=1;whiteSpace=wrap;html=1;fillColor=#dae8fc;strokeColor=#6c8ebf;" vertex="1" parent="1">
          <mxGeometry x="192" y="888" width="120" height="60" as="geometry" />
        </mxCell>
        <mxCell id="r9l6ygumFsfBTqQ8MOW--22" value="&amp;lt; 5min 2 cores, &amp;lt; 60 min" style="rounded=1;whiteSpace=wrap;html=1;fillColor=#ffe6cc;strokeColor=#d79b00;" vertex="1" parent="1">
          <mxGeometry x="192" y="948" width="120" height="60" as="geometry" />
        </mxCell>
        <mxCell id="r9l6ygumFsfBTqQ8MOW--26" value="&lt;div&gt;Synteny Comparison&lt;br&gt;&lt;div&gt;&lt;font style=&quot;font-size: 17px&quot;&gt;Input: &lt;br&gt;&lt;/font&gt;&lt;/div&gt;&lt;font style=&quot;font-size: 17px&quot;&gt;Output&lt;/font&gt;&lt;/div&gt;" style="rounded=0;whiteSpace=wrap;html=1;" vertex="1" parent="1">
          <mxGeometry x="-168" y="528" width="192" height="84" as="geometry" />
        </mxCell>
        <mxCell id="r9l6ygumFsfBTqQ8MOW--29" value="" style="rounded=1;whiteSpace=wrap;html=1;" vertex="1" parent="1">
          <mxGeometry x="-132" y="612" width="120" height="60" as="geometry" />
        </mxCell>
        <mxCell id="r9l6ygumFsfBTqQ8MOW--30" value="" style="rounded=1;whiteSpace=wrap;html=1;" vertex="1" parent="1">
          <mxGeometry x="-132" y="672" width="120" height="60" as="geometry" />
        </mxCell>
      </root>
    </mxGraphModel>
  </diagram>
</mxfile>
